<?xml version="1.0" encoding="UTF-8" standalone="no"?>
<!-- Created with Inkscape (http://www.inkscape.org/) -->

<svg
   xmlns:dc="http://purl.org/dc/elements/1.1/"
   xmlns:cc="http://creativecommons.org/ns#"
   xmlns:rdf="http://www.w3.org/1999/02/22-rdf-syntax-ns#"
   xmlns:svg="http://www.w3.org/2000/svg"
   xmlns="http://www.w3.org/2000/svg"
   version="1.1"
   width="214.53125"
   height="414.4375"
   id="svg7045">
  <defs
     id="defs7047" />
  <g
     transform="translate(-347.02009,-268.00058)"
     id="layer1">
    <path
       d="m 414.27009,269.00058 c 10.17968,10.43278 13.8125,31.28234 13.8125,59.1875 l 0,212.53125 13.84375,0 0,-215.9375 c 0,-31.2984 -10.44384,-47.0478 -27.65625,-55.78125 z m 8.46875,0 c 14.06547,9.45996 26.21875,24.23657 26.21875,55.78125 l 0,215.9375 14.0625,0 0,-215.9375 c 0,-34.93792 -17.47277,-48.74716 -40.28125,-55.78125 z m 11.40625,0 c 13.09402,6.06675 35.65625,17.44464 35.65625,55.78125 l 0,215.9375 14.09375,0 0,-215.9375 c 0,-47.07006 -36.65598,-54.08192 -49.75,-55.78125 z m 27.65625,346.9375 c -22.5622,0 -36.875,14.56909 -36.875,33.5 0,19.16624 14.05908,32 36.375,32 5.82867,0 12.37994,-0.95689 18.6875,-2.65625 l 0,-28.375 c 0,-4.12114 -3.6142,-7.53125 -7.5,-7.53125 l -12.875,0 c 2.68174,2.42042 3.65625,4.61049 3.65625,8.25 l 0,20.125 c -1.45034,0.24492 -2.90727,0.25 -4.125,0.25 -10.42596,0 -16.75,-8.97184 -16.75,-23.53125 0,-13.83149 8.48772,-21.125 19.40625,-21.125 5.3361,0 10.44038,1.4583 14.3125,4.125 l 0,-12.59375 c -4.36467,-1.70073 -9.22268,-2.4375 -14.3125,-2.4375 z m -98.75,1.46875 c 2.66805,2.18507 3.65625,3.62743 3.65625,5.8125 0,1.21362 -0.26845,2.19508 -1.71875,6.5625 l -16.96875,50.21875 11.625,0 5.125,-15.53125 20.84375,0 5.34375,15.53125 17.71875,0 -19.65625,-55.3125 c -2.17551,-6.30618 -7.02213,-7.28125 -8.71875,-7.28125 l -17.25,0 z m 141.21875,0 c 2.66807,2.42589 3.40625,4.36424 3.40625,8.25 l 0,54.34375 16.96875,0 0,-26.21875 19.1875,0 0,26.21875 16.71875,0 0,-62.34375 -16.71875,0 0,25.46875 -19.1875,0 0,-17.71875 c 0,-4.36604 -3.62165,-8 -8,-8 l -12.375,0 z m -129.3125,16 7.28125,21.34375 -14.3125,0 7.03125,-21.34375 z"
       id="path1024"
       style="fill:#231f20;fill-opacity:1;fill-rule:evenodd;stroke:none" />
    <path
       d="m 504.77009,331.59433 0,184.625 c 0,27.90516 -3.65413,48.76389 -14.09375,59.4375 17.47236,-8.73345 27.90625,-24.48285 27.90625,-55.78125 l 0,-188.28125 -13.8125,0 z m 20.84375,0 0,188.28125 c 0,31.2984 -12.12203,46.07497 -26.1875,55.78125 22.80848,-7.0341 40.25,-21.08277 40.25,-55.78125 l 0,-188.28125 -14.0625,0 z m 20.875,0 0,188.28125 c 0,38.33797 -22.59349,49.47369 -35.6875,55.78125 13.09401,-1.94016 49.75,-8.70983 49.75,-55.78125 l 0,-188.28125 -14.0625,0 z"
       id="path1030"
       style="fill:#b01028;fill-opacity:1;fill-rule:evenodd;stroke:none" />
    <path
       d="m 351.42634,331.59433 0,188.28125 c 0,47.07142 36.61104,53.84109 49.71875,55.78125 -13.10771,-6.30756 -35.90625,-17.44328 -35.90625,-55.78125 l 0,-188.28125 -13.8125,0 z m 20.84375,0 0,188.28125 c 0,34.69848 17.48273,48.74715 40.03125,55.78125 -13.81919,-9.70628 -25.9375,-24.48285 -25.9375,-55.78125 l 0,-188.28125 -14.09375,0 z m 20.875,0 0,188.28125 c 0,31.2984 10.43388,47.0478 27.90625,55.78125 -10.42596,-10.67361 -13.84375,-31.53234 -13.84375,-59.4375 l 0,-184.625 -14.0625,0 z"
       id="path1042"
       style="fill:#006b3b;fill-opacity:1;fill-rule:evenodd;stroke:none" />
  </g>
</svg>
